{"accessors":[{"bufferView":0,"componentType":5126,"count":4,"min":[-0.6196472644805908,-1.0502843856811524,-34.79854583740235],"max":[0.43764781951904299,0.6604627370834351,1.143463134765625],"type":"VEC3","name":"x6_COCKPIT_vertices#0_POSITION"},{"bufferView":0,"byteOffset":12,"componentType":5120,"count":4,"type":"VEC4","name":"x6_COCKPIT_vertices#0_TANGENT"},{"bufferView":0,"byteOffset":16,"componentType":5120,"count":4,"type":"VEC4","name":"x6_COCKPIT_vertices#0_NORMAL"},{"bufferView":0,"byteOffset":20,"componentType":5122,"count":4,"type":"VEC2","name":"x6_COCKPIT_vertices#0_TEXCOORD_0"},{"bufferView":0,"byteOffset":24,"componentType":5122,"count":4,"type":"VEC2","name":"x6_COCKPIT_vertices#0_TEXCOORD_1"},{"bufferView":0,"byteOffset":28,"componentType":5123,"count":4,"type":"VEC4","name":"x6_COCKPIT_vertices#0_COLOR_0"},{"bufferView":1,"componentType":5123,"count":6,"type":"SCALAR","name":"x6_COCKPIT_indices#0"}],"asset":{"generator":"babylon.js glTF exporter for 3dsmax 2019 v1.0.7796.28030","version":"2.0","extensions":{"ASOBO_asset_optimized":{"BoundingBoxMax":[0.43764781951904299,0.6604627370834351,1.143463134765625],"BoundingBoxMin":[-0.6196472644805908,-1.0502843856811524,-34.79854583740235],"MajorVersion":4,"MinorVersion":4,"UseCheckerboardMaterialForMissingTextures":true},"ASOBO_normal_map_convention":{"tangent_space_convention":"DirectX"}}},"bufferViews":[{"buffer":0,"byteLength":144,"byteStride":36,"target":34962,"name":"BufferViewVertexND"},{"buffer":0,"byteLength":12,"byteOffset":144,"target":34963,"name":"BufferViewIndex"}],"extensionsRequired":["MSFT_texture_dds"],"materials":[{"name":"Generic","occlusionTexture":{"index":1},"pbrMetallicRoughness":{"baseColorTexture":{"index":0},"metallicRoughnessTexture":{"index":1}}}],"meshes":[{"primitives":[{"attributes":{"COLOR_0":5,"NORMAL":2,"POSITION":0,"TANGENT":1,"TEXCOORD_0":3,"TEXCOORD_1":4},"indices":6,"material":0,"mode":4,"extras":{"ASOBO_primitive":{"PrimitiveCount":2,"VertexType":"VTX","VertexVersion":2}}}],"name":"x6_COCKPIT"}],"nodes":[{"translation":[0.0,1.93361723,11.0616646],"mesh":0,"extensions":{"ASOBO_unique_id":{"id":"x6_COCKPIT_54609"}},"name":"COCKPIT"}],"scene":0,"scenes":[{"nodes":[0]}],"textures":[{"extensions":{"MSFT_texture_dds":{"source":0}}},{"extensions":{"MSFT_texture_dds":{"source":1}}}],"extensionsUsed":["ASOBO_normal_map_convention","ASOBO_unique_id","MSFT_texture_dds","ASOBO_asset_optimized"],"buffers":[{"byteLength":156,"uri":"A320_NEO_INTERIOR_LOD06.bin"}],"images":[{"uri":"ATLAS_ALBD.PNG.DDS","extras":"ASOBO_image_converted_meta"},{"uri":"ATLAS_COMP.PNG.DDS","extras":"ASOBO_image_converted_meta"}]}
